<!-- Generated by IcoMoon.io -->
<svg version="1.1" xmlns="http://www.w3.org/2000/svg" width="32" height="32" viewBox="0 0 32 32">
<title>coins</title>
<path d="M12 5.333c0-2.945 4.477-5.333 10-5.333s10 2.388 10 5.333-4.477 5.333-10 5.333-10-2.388-10-5.333zM22 13.333c-1.369 0-2.668-0.153-3.855-0.42-1.812-1.359-4.781-2.247-8.145-2.247-5.523 0-10 2.388-10 5.333s4.477 5.333 10 5.333 10-2.388 10-5.333c0-0.039-0.009-0.076-0.011-0.115h0.011v2.781c0 2.945-4.477 5.333-10 5.333s-10-2.388-10-5.333v2.667c0 2.945 4.477 5.333 10 5.333s10-2.388 10-5.333v2.667c0 2.945-4.477 5.333-10 5.333s-10-2.388-10-5.333v2.667c0 2.945 4.477 5.333 10 5.333s10-2.388 10-5.333v-0.107c0.647 0.069 1.315 0.107 2 0.107 5.523 0 10-2.388 10-5.333v-2.667c0 2.825-4.123 5.132-9.333 5.316v-2.667c5.211-0.184 9.333-2.489 9.333-5.316v-2.667c0 2.825-4.123 5.132-9.333 5.316v-2.667c5.211-0.184 9.333-2.489 9.333-5.316v-2.667c0 2.945-4.477 5.333-10 5.333z"></path>
</svg>
