<!-- Generated by IcoMoon.io -->
<svg version="1.1" xmlns="http://www.w3.org/2000/svg" width="32" height="32" viewBox="0 0 32 32">
<title>users</title>
<path d="M16 22.667c-2.946 0-5.333-2.388-5.333-5.333s2.388-5.333 5.333-5.333c2.946 0 5.333 2.388 5.333 5.333v0c0 2.946-2.388 5.333-5.333 5.333v0zM24 28c0-2.209-1.791-4-4-4v0h-8c-2.209 0-4 1.791-4 4v0 4h16zM24 10.667c-2.946 0-5.333-2.388-5.333-5.333s2.388-5.333 5.333-5.333c2.946 0 5.333 2.388 5.333 5.333v0c0 2.946-2.388 5.333-5.333 5.333v0zM8 10.667c-2.946 0-5.333-2.388-5.333-5.333s2.388-5.333 5.333-5.333c2.946 0 5.333 2.388 5.333 5.333v0c0 2.946-2.388 5.333-5.333 5.333v0zM8 17.333c0-0.001 0-0.002 0-0.003 0-2.054 0.778-3.926 2.055-5.337l-0.006 0.007h-6.049c-2.209 0-4 1.791-4 4v0 4h8.465c-0.293-0.793-0.463-1.71-0.465-2.666v-0.001zM23.535 20h8.465v-4c0-2.209-1.791-4-4-4v0h-6.049c1.271 1.402 2.049 3.271 2.049 5.322 0 0.96-0.171 1.881-0.483 2.733l0.018-0.055z"></path>
</svg>
